<?xml version="1.0" encoding="UTF-8"?>
<!DOCTYPE svg PUBLIC "-//W3C//DTD SVG 1.1//EN" "http://www.w3.org/Graphics/SVG/1.1/DTD/svg11.dtd">
<!-- Creator: CorelDRAW -->
<svg xmlns="http://www.w3.org/2000/svg" xml:space="preserve" width="2335px" height="423px" shape-rendering="geometricPrecision" text-rendering="geometricPrecision" image-rendering="optimizeQuality" fill-rule="evenodd" clip-rule="evenodd"
viewBox="0 0 2385.69 432.029"
 xmlns:xlink="http://www.w3.org/1999/xlink">
 <g id="Ebene_x0020_1">
  <metadata id="CorelCorpID_0Corel-Layer"/>
  <path fill="#1F1A17" d="M529.446 117.843l26.5525 0 0 91.6715c0,20.934 1.21999,45.3567 35.5582,45.3567 34.3382,0 35.7139,-24.4226 35.7139,-45.3567l0 -91.6715 26.4017 0 0 100.55c0,40.2873 -24.7219,60.2704 -62.1155,60.2704 -37.2367,0 -62.1107,-19.9832 -62.1107,-60.2704l0 -100.55z"/>
  <path fill="#1F1A17" d="M681.753 161.299l22.8949 0 0 16.6502 0.304091 0.477858c7.32474,-12.5281 19.8396,-20.3005 34.1862,-20.3005 23.806,0 38.7608,13.3221 38.7608,38.8561l0 78.032 -24.1101 0 0 -71.5279c-0.460964,-17.7652 -7.1739,-25.5376 -21.3685,-25.5376 -16.1772,0 -26.5525,13.3269 -26.5525,29.9771l0 67.0884 -24.1149 0 0 -113.716z"/>
  <path fill="#1F1A17" d="M804.911 161.299l24.1149 0 0 113.716 -24.1149 0 0 -113.716zm0 -43.4561l24.1149 0 0 23.7891 -24.1149 0 0 -23.7891z"/>
  <polygon fill="#1F1A17" points="845.355,161.299 871.605,161.299 899.382,248.526 899.837,248.526 926.547,161.299 951.577,161.299 912.353,275.015 885.187,275.015 "/>
  <path fill="#1F1A17" d="M1014 177.949l0.760229 0c16.3292,0 26.7094,14.4335 27.4732,30.2933l-28.2334 0 0 16.3389 52.3436 0c0.307712,-1.42754 0.307712,-2.85508 0.459757,-4.28383l0 -7.93172c-1.67974,-29.1783 -21.6713,-54.2393 -52.0431,-54.2393l-0.760229 0 0 19.8227zm0 100.077l0 -19.8227 1.37203 0c13.8856,0 22.4352,-6.34489 26.7094,-18.873l22.8901 0c-5.34211,24.9005 -25.6378,38.6956 -49.5995,38.6956l-1.37203 0zm-28.085 -69.7842c0.611803,-16.8107 11.7522,-29.9723 28.085,-30.2933l0 -19.8227c-32.2023,0.477858 -52.3472,28.0717 -52.3472,59.9495 0,34.734 18.9249,59.3171 52.3472,59.9507l0 -19.8227c-19.2326,-0.634731 -28.085,-16.1784 -28.085,-33.6226l28.085 0 0 -16.3389 -28.085 0z"/>
  <path fill="#1F1A17" d="M1085.72 161.299l22.5872 0 0 22.0442 0.456137 0c2.74648,-12.2107 17.2451,-25.2167 32.0515,-25.2167 5.49295,0 7.02065,0.477858 9.15653,0.633524l0 24.2658c-3.51153,-0.476651 -7.02186,-1.11018 -10.3801,-1.11018 -16.6333,0 -29.7563,13.9556 -29.7563,38.8549l0 54.2441 -24.1149 0 0 -113.716z"/>
  <path fill="#1F1A17" d="M1179.42 238.376c1.22361,14.594 11.9078,19.8275 24.5747,19.8275 9.15653,0 25.026,-1.9054 24.4178,-14.9113 -0.611803,-13.3221 -18.1598,-14.7496 -35.8647,-19.0286 -17.5492,-3.96646 -34.95,-10.3101 -34.95,-33.4657 0,-24.8993 25.7935,-32.6717 45.633,-32.6717 22.4352,0 42.7309,9.673 45.7815,35.0502l-25.3337 0c-1.98263,-11.8946 -11.5953,-15.2275 -22.1263,-15.2275 -7.02186,0 -19.8408,1.74491 -19.8408,11.7389 0,12.3712 17.7049,14.1161 35.4061,18.2382 17.7049,4.28262 35.4049,10.6275 35.4049,33.1496 0,27.1172 -26.2484,36.9507 -48.9877,36.9507 -27.3175,0 -47.921,-12.685 -48.3771,-39.6501l24.2622 0z"/>
  <path fill="#1F1A17" d="M1272.52 161.299l24.1137 0 0 113.716 -24.1137 0 0 -113.716zm0 -43.4561l24.1137 0 0 23.7891 -24.1137 0 0 -23.7891z"/>
  <path fill="#1F1A17" d="M1312.81 161.299l18.1598 0 0 -34.261 24.267 0 0 34.261 21.8234 0 0 18.7161 -21.8234 0 0 60.583c0,10.3101 0.763849,15.7005 11.5989,15.7005 3.35466,0 6.71294,0 10.2245,-0.950889l0 19.3496c-5.34211,0.477858 -10.5322,1.42754 -15.7174,1.42754 -25.1829,0 -29.9168,-10.1497 -30.3729,-29.1819l0 -66.9279 -18.1598 0 0 -18.7161z"/>
  <path fill="#1F1A17" d="M1462.83 236.631c0,14.7496 -14.1946,20.7772 -24.7267,21.5724l0 18.8718c9.92038,-1.74491 19.8408,-5.86703 26.7094,-12.8442 1.83179,10.3053 8.85244,13.7951 18.6208,13.7951 3.96646,0 11.5953,-1.58441 15.2577,-2.85146l0 -17.4491c-2.59081,0.477858 -4.42139,0.477858 -5.94909,0.477858 -4.42622,0 -5.80187,-2.37843 -5.80187,-8.56645l0 -58.3614c0,-24.1101 -22.4304,-33.1496 -43.7988,-33.1496 -1.67854,0 -3.35828,0.155666 -5.03802,0.155666l0 19.8275 3.51033 -0.160493c9.76833,0 22.7393,2.53892 22.7393,15.388 0,12.8442 -11.751,13.1616 -26.2496,15.067l0 15.5388c9.16136,-1.26705 18.4687,-1.7437 24.7267,-6.0227l0 18.7113zm-15.1104 -117.204l0 23.7891 24.267 0 0 -23.7891 -24.267 0zm-9.61629 138.777l-2.43877 0c-8.3963,0 -22.2831,-3.33294 -22.2831,-14.4335 0,-13.3221 9.46424,-17.2886 19.8408,-19.0335 1.52649,-0.316159 3.20623,-0.473031 4.88115,-0.794017l0 -15.5388c-2.13467,0.316159 -4.42139,0.633524 -6.71294,1.11018 -20.2957,2.37843 -42.1227,6.81792 -42.1227,35.2058 0,22.3664 17.8569,33.3065 37.5444,33.3065 3.66237,0 7.47679,-0.317365 11.2912,-0.950889l0 -18.8718zm0 -99.9218l0 19.8275c-11.5953,0.950889 -19.6839,6.66105 -20.5998,17.9221l-24.2658 0c1.67974,-27.2777 22.5872,-36.6382 44.8656,-37.7496zm-2.59081 -15.0658l0 -23.7891 -24.1137 0 0 23.7891 24.1137 0z"/>
  <path fill="#1F1A17" d="M1502.97 161.299l18.161 0 0 -34.261 24.1149 0 0 34.261 21.8222 0 0 18.7161 -21.8222 0 0 60.583c0,10.3101 0.914688,15.7005 11.751,15.7005 3.35828,0 6.71294,0 10.0712,-0.950889l0 19.3496c-5.18886,0.477858 -10.3753,1.42754 -15.5654,1.42754 -25.3337,0 -29.912,-10.1497 -30.3717,-29.1819l0 -66.9279 -18.161 0 0 -18.7161z"/>
  <path fill="#1F1A17" d="M1711.13 203.487l10.683 0c16.1784,0 25.4858,8.87899 25.4858,24.1065 0,15.8598 -9.30737,24.8993 -25.4858,24.8993l-10.683 0 0 22.5221 6.86861 0c39.2206,0 55.8587,-19.1891 55.8587,-43.9328 0,-21.0945 -10.0773,-36.1615 -28.5412,-40.2837l0 -0.476651c13.8868,-6.1844 21.6713,-17.6059 21.6713,-33.4621 0,-26.1712 -17.8569,-39.0166 -44.8704,-39.0166l-10.9871 0 0 22.5221 7.1727 0c14.3466,0 22.1311,5.70654 22.1311,21.5676 0,14.1161 -9.46424,21.7281 -22.1311,21.7281l-7.1727 0 0 19.8263zm-36.17 0l36.17 0 0 -19.8263 -36.17 0 0 -43.2956 36.17 0 0 -22.5221 -62.5716 0 0 157.172 62.5716 0 0 -22.5221 -36.17 0 0 -49.0058z"/>
  <path fill="#1F1A17" d="M1795.22 161.299l22.5872 0 0 22.0442 0.459757 0c2.74768,-12.2107 17.2451,-25.2167 32.0467,-25.2167 5.49416,0 7.02186,0.477858 9.15653,0.633524l0 24.2658c-3.51033,-0.476651 -7.01703,-1.11018 -10.3753,-1.11018 -16.6381,0 -29.7599,13.9556 -29.7599,38.8549l0 54.2441 -24.1149 0 0 -113.716z"/>
  <path fill="#1F1A17" d="M1913.96 177.949l0.608183 0c16.3292,0 26.7094,14.4335 27.6241,30.2933l-28.2322 0 0 16.3389 52.3423 0c0.156873,-1.42754 0.308918,-2.85508 0.308918,-4.28383l0 -7.93172c-1.67974,-29.1783 -21.6713,-54.2393 -52.0431,-54.2393l-0.608183 0 0 19.8227zm0 100.077l0 -19.8227 1.21999 0c14.0377,0 22.434,-6.34489 26.7045,-18.873l22.8949 0c-5.34211,24.9005 -25.6414,38.6956 -49.5995,38.6956l-1.21999 0zm-28.2371 -69.7842c0.611803,-16.8107 11.751,-29.9723 28.2371,-30.2933l0 -19.8227c-32.3556,0.477858 -52.3472,28.0717 -52.3472,59.9495 0,34.734 18.768,59.3171 52.3472,59.9507l0 -19.8227c-19.2326,-0.634731 -28.2371,-16.1784 -28.2371,-33.6226l28.2371 0 0 -16.3389 -28.2371 0z"/>
  <path fill="#1F1A17" d="M1985.53 161.299l22.8913 0 0 15.861 0.611803 0c7.32474,-11.261 16.3292,-19.0335 33.7264,-19.0335 13.4307,0 25.9455,6.02753 30.8279,19.0335 7.93655,-11.7389 18.3119,-19.0335 34.3382,-19.0335 23.047,0 36.6249,10.6275 36.6249,38.3831l0 78.5051 -24.1101 0 0 -66.4548c0,-18.0778 -1.06794,-30.6107 -19.9916,-30.6107 -16.3304,0 -23.3511,11.261 -23.3511,30.455l0 66.6105 -24.1149 0 0 -72.9554c0,-15.7005 -4.7291,-24.1101 -19.2278,-24.1101 -12.5148,0 -23.9581,10.6275 -23.9581,29.4993l0 67.5662 -24.267 0 0 -113.716z"/>
  <path fill="#1F1A17" d="M2217.81 177.949l0.760229 0c16.3292,0 26.7094,14.4335 27.4732,30.2933l-28.2334 0 0 16.3389 52.4992 0c0.152046,-1.42754 0.152046,-2.85508 0.304091,-4.28383l0 -7.93172c-1.67974,-29.1783 -21.6713,-54.2393 -52.0431,-54.2393l-0.760229 0 0 19.8227zm0 100.077l0 -19.8227 1.37203 0c13.8856,0 22.4352,-6.34489 26.7094,-18.873l22.8901 0c-5.34091,24.9005 -25.6366,38.6956 -49.5995,38.6956l-1.37203 0zm-28.085 -69.7842c0.611803,-16.8107 11.7522,-29.9723 28.085,-30.2933l0 -19.8227c-32.2023,0.477858 -52.346,28.0717 -52.346,59.9495 0,34.734 18.9237,59.3171 52.346,59.9507l0 -19.8227c-19.2326,-0.634731 -28.085,-16.1784 -28.085,-33.6226l28.085 0 0 -16.3389 -28.085 0z"/>
  <path fill="#1F1A17" d="M2289.54 161.299l22.8901 0 0 16.6502 0.459757 0.477858c7.1739,-12.5281 19.6839,-20.3005 34.0305,-20.3005 23.8108,0 38.7644,13.3221 38.7644,38.8561l0 78.032 -24.1149 0 0 -71.5279c-0.45493,-17.7652 -7.16787,-25.5376 -21.3624,-25.5376 -16.1784,0 -26.5573,13.3269 -26.5573,29.9771l0 67.0884 -24.1101 0 0 -113.716z"/>
  <path fill="#C4263A" d="M149.742 197.616c-0.152046,43.2992 34.3382,77.238 75.5414,77.238 41.6678,0 75.5462,-33.9388 75.5462,-77.238l0 -197.616 -37.6977 0 0 197.616c0,21.5712 -16.9362,38.0657 -37.8485,38.0657 -20.1436,0 -37.8449,-17.1281 -37.8449,-38.0657l0 -118.789 -37.6965 0 0 118.789z"/>
  <polygon fill="#C4263A" points="36.3522,39.3328 36.3522,0 0,0 0,39.3328 "/>
  <polygon fill="#C4263A" points="74.0439,78.6668 74.0439,39.3328 36.3522,39.3328 36.3522,78.6668 "/>
  <polygon fill="#C4263A" points="111.894,39.3328 111.894,0 74.0439,0 74.0439,39.3328 "/>
  <polygon fill="#C4263A" points="187.439,39.3328 149.742,39.3328 149.742,0 187.439,0 "/>
  <polygon fill="#C4263A" points="149.742,78.6668 111.894,78.6668 111.894,39.3328 149.742,39.3328 "/>
  <path fill="#C4263A" d="M452.069 0.160493l0 197.456c0,129.577 -101.64,234.413 -226.629,234.413 -116.099,0 -212.509,-90.6868 -225.44,-207.605l0 -145.758 36.3522 0 0 118.949c0,108.009 85.0056,195.081 189.088,195.081 104.081,0 188.779,-87.0715 188.779,-195.081l0 -197.616 37.8497 0.160493z"/>
  <path fill="#C4263A" d="M338.678 0l0 197.616c0,64.8704 -50.9751,116.571 -113.395,116.571 -62.5704,0 -113.39,-51.7004 -113.39,-116.571l0 -119.106 -37.8497 0 0 119.106c0,86.438 67.9138,155.748 151.24,155.748 83.3307,0 151.092,-69.3099 151.092,-155.748l0 -197.456 -37.6977 -0.160493z"/>
 </g>
</svg>
